<?xml version="1.0" encoding="UTF-8"?>
<svg version="1.1" xmlns="http://www.w3.org/2000/svg" width="350" height="318">
<path d="M0 0 C0.09283355 11.0747694 0.16383284 22.14944565 0.20724869 33.22452545 C0.22809011 38.36759726 0.25634483 43.51040212 0.30175781 48.65332031 C0.3453384 53.62001659 0.36916301 58.58645669 0.37950897 63.55332947 C0.38687844 65.44469737 0.40126928 67.33605185 0.42292023 69.22731018 C0.45211682 71.88426604 0.45594926 74.5401742 0.45410156 77.19726562 C0.46848267 77.97266693 0.48286377 78.74806824 0.49768066 79.54696655 C0.45627873 85.07821897 -0.60575206 89.53803127 -4 94 C-9.19747189 98.78640248 -14.23865873 99.72535462 -21.10302734 99.61181641 C-22.41204765 99.62031364 -22.41204765 99.62031364 -23.74751282 99.62898254 C-26.61076833 99.64240378 -29.47273871 99.62159271 -32.3359375 99.6015625 C-34.34079855 99.60706844 -36.34565394 99.61519823 -38.35049438 99.62582397 C-43.61731857 99.64866334 -48.88372702 99.6445099 -54.15057373 99.63201904 C-62.57187422 99.61368726 -70.99293025 99.62381905 -79.41417313 99.65787888 C-82.34225543 99.66394609 -85.26980505 99.6507683 -88.19784546 99.63589478 C-100.26153011 99.62886742 -110.38681968 99.90632072 -120.0234375 107.9765625 C-126.25607296 114.35700749 -129.01923646 122.57709395 -129.3125 131.375 C-129.1039252 140.35598547 -126.03298605 148.27138662 -120 155 C-111.70028132 161.50631213 -103.12957799 163.30761604 -92.83349609 163.25537109 C-91.95439072 163.25899155 -91.07528534 163.262612 -90.16954041 163.26634216 C-88.27461148 163.27319747 -86.37966298 163.27574891 -84.48472214 163.27439499 C-81.48305793 163.27342444 -78.48174657 163.28643248 -75.48013306 163.30337524 C-66.95097518 163.34950112 -58.42185661 163.37426611 -49.89257812 163.38085938 C-44.6636581 163.38587471 -39.43511144 163.41011773 -34.2063179 163.44618607 C-32.21846381 163.45597571 -30.23055834 163.45832058 -28.24268723 163.45301437 C-25.46395642 163.4459409 -22.6863403 163.46322913 -19.90771484 163.48583984 C-19.09093765 163.47766739 -18.27416046 163.46949493 -17.43263245 163.46107483 C-12.16356057 163.53725561 -9.19203429 164.53378676 -5 168 C-1.37731923 172.30805281 0.44245978 176.3744399 0 182 C-1.63355107 187.28501816 -4.25053657 191.05985597 -9 194 C-14.03703315 196.09105357 -18.42813839 196.28283436 -23.78417969 196.25537109 C-24.64681427 196.25899155 -25.50944885 196.262612 -26.39822388 196.26634216 C-28.26425879 196.2732144 -30.1303137 196.27574569 -31.99636078 196.27439499 C-34.95695968 196.27342602 -37.91719922 196.28641691 -40.87774658 196.30337524 C-49.29281833 196.34952838 -57.70785284 196.37423832 -66.12304688 196.38085938 C-71.27835825 196.38589263 -76.43329418 196.41023486 -81.58847809 196.44618607 C-83.54511504 196.45594243 -85.50180391 196.45833891 -87.45845795 196.45301437 C-100.43885729 196.41935334 -111.25938322 196.5609389 -121.2421875 205.9375 C-127.77721876 213.60527001 -129.13464369 221.78454357 -129.20532227 231.55395508 C-129.21522186 232.40324585 -129.22512146 233.25253662 -129.23532104 234.12756348 C-129.26681909 236.92485805 -129.2916471 239.72216959 -129.31640625 242.51953125 C-129.33698588 244.46295097 -129.35798262 246.40636632 -129.37937927 248.34977722 C-129.4344957 253.45755463 -129.48395088 258.56537174 -129.53222656 263.67321777 C-129.58251783 268.88830079 -129.63816405 274.10332636 -129.69335938 279.31835938 C-129.80081336 289.54552381 -129.90228655 299.77273819 -130 310 C-139.01733663 308.64486983 -147.93697134 303.94492373 -154 297 C-157.26530772 292.49076553 -160.14394261 287.77320984 -163 283 C-163.46116211 282.23155762 -163.92232422 281.46311523 -164.39746094 280.67138672 C-168.30611416 274.13835205 -172.15631165 267.57140243 -176 261 C-176.6609668 259.87013672 -177.32193359 258.74027344 -178.00292969 257.57617188 C-178.51461449 256.70149261 -178.51461449 256.70149261 -179.03663635 255.80914307 C-180.45450334 253.38565381 -181.87267127 250.96234089 -183.29110718 248.53918457 C-184.01537426 247.30187204 -184.73951512 246.06448562 -185.46353149 244.82702637 C-190.48457 236.24779705 -195.55875372 227.70295146 -200.6875 219.1875 C-205.68702712 210.87818372 -210.65504066 202.55158026 -215.5625 194.1875 C-216.12219482 193.23963623 -216.68188965 192.29177246 -217.25854492 191.31518555 C-226.24584735 175.93913928 -233.44228839 162.16158976 -228.75 143.9375 C-225.65826973 134.96605812 -220.48992361 126.95528737 -215.66748047 118.83105469 C-212.92382249 114.17286172 -210.27649127 109.46106683 -207.625 104.75 C-207.08891113 103.80092773 -206.55282227 102.85185547 -206.00048828 101.87402344 C-201.95984526 94.71864312 -197.94702391 87.54784987 -193.9375 80.375 C-189.18821247 71.87874779 -184.4070354 63.40244938 -179.54101562 54.97241211 C-176.79705355 50.20455086 -174.12871865 45.40592523 -171.52734375 40.55859375 C-162.25114639 23.36643804 -154.54436896 10.27753362 -135.75 2.6875 C-129.02380808 1.00595202 -122.47585942 0.83619307 -115.5769043 0.79467773 C-114.55140976 0.78477814 -113.52591522 0.77487854 -112.46934509 0.76467896 C-109.08765944 0.73316933 -105.70596024 0.70832128 -102.32421875 0.68359375 C-99.95595466 0.66298862 -97.58769395 0.64199131 -95.21943665 0.62062073 C-88.98093594 0.56547984 -82.74240197 0.51609023 -76.50384521 0.46777344 C-71.45588309 0.42773011 -66.40796013 0.3836575 -61.36003399 0.33933926 C-55.2856069 0.28607668 -49.21116554 0.23455517 -43.13671875 0.18359375 C-41.99941504 0.17403593 -40.86211132 0.16447811 -39.69034386 0.15463066 C-26.45992377 0.04524446 -13.2308881 -0.02796473 0 0 Z " fill="#0F4FAC" transform="translate(233,0)"/>
<path d="M0 0 C1.57212682 0.60599101 3.14199918 1.21783226 4.7109375 1.83203125 C5.58540527 2.17210205 6.45987305 2.51217285 7.36083984 2.86254883 C20.30650132 8.44199719 27.44927103 19.03754394 34.0625 31 C35.37697068 33.32794901 36.69333859 35.65474038 38.01171875 37.98046875 C38.34375305 38.56869919 38.67578735 39.15692963 39.0178833 39.76298523 C42.36324997 45.6780352 45.85782244 51.49856199 49.375 57.3125 C55.59553773 67.62215422 61.70976836 77.99012194 67.78662109 88.38476562 C68.49574499 89.59766984 69.20489191 90.81056059 69.9140625 92.0234375 C70.26032684 92.61570129 70.60659119 93.20796509 70.96334839 93.81817627 C73.74371169 98.57023108 76.54683933 103.30849907 79.35742188 108.04272461 C81.44195185 111.5577354 83.51440301 115.07977259 85.58496094 118.60302734 C86.94390802 120.90498429 88.3190206 123.19666864 89.6953125 125.48828125 C96.97843288 137.77899133 101.12591835 149.31908158 97.84765625 163.56640625 C96.1642474 170.10603177 93.39060022 175.59511758 90.0625 181.4375 C89.4862085 182.47463135 88.90991699 183.5117627 88.31616211 184.58032227 C86.56008542 187.72953872 84.78374825 190.86638821 83 194 C82.48695313 194.90492188 81.97390625 195.80984375 81.4453125 196.7421875 C79.0100703 201.03285232 76.55902245 205.31411972 74.09765625 209.58984375 C70.68329642 215.53287122 67.34080234 221.51540381 64 227.5 C59.2327761 236.03571861 54.42514928 244.54592673 49.55004883 253.02050781 C46.78438538 257.83891631 44.06502474 262.67928951 41.38671875 267.546875 C40.77119141 268.66126953 40.15566406 269.77566406 39.52148438 270.92382812 C38.33526736 273.0751887 37.15515416 275.22993101 35.98242188 277.38867188 C28.76515165 290.45456627 20.28528918 301.45614504 6 307 C0.44471453 308.5901227 -4.49891312 309.30160934 -10.25976562 309.31884766 C-11.04524277 309.32889328 -11.83071991 309.3389389 -12.63999939 309.34928894 C-15.2287433 309.38005532 -17.81738123 309.39719111 -20.40625 309.4140625 C-22.24956048 309.43284834 -24.09286303 309.45242671 -25.93615723 309.4727478 C-30.80660955 309.52405808 -35.67709172 309.56356907 -40.54766846 309.60089111 C-44.39959583 309.63234614 -48.25141296 309.67214954 -52.10325623 309.71246719 C-77.73569721 309.98014605 -103.36632948 310.05171287 -129 310 C-129.09283355 298.9252306 -129.16383284 287.85055435 -129.20724869 276.77547455 C-129.22809011 271.63240274 -129.25634483 266.48959788 -129.30175781 261.34667969 C-129.3453384 256.37998341 -129.36916301 251.41354331 -129.37950897 246.44667053 C-129.38687844 244.55530263 -129.40126928 242.66394815 -129.42292023 240.77268982 C-129.45211682 238.11573396 -129.45594926 235.4598258 -129.45410156 232.80273438 C-129.46848267 232.02733307 -129.48286377 231.25193176 -129.49768066 230.45303345 C-129.45635216 224.93159078 -128.15911088 220.57882784 -125 216 C-119.23617748 211.41246779 -114.6869573 210.85140657 -107.54052734 210.84228516 C-106.67672455 210.83720444 -105.81292175 210.83212372 -104.92294312 210.82688904 C-103.04539378 210.81618426 -101.16783168 210.8075645 -99.29026413 210.80076981 C-96.31344721 210.78897338 -93.33677488 210.76951641 -90.36001587 210.74765015 C-81.89549614 210.68607419 -73.43098986 210.63208047 -64.96630859 210.59863281 C-59.78855529 210.57762266 -54.61106355 210.54226403 -49.43346024 210.49787521 C-47.46484086 210.48376039 -45.49617518 210.47500303 -43.52750778 210.47182083 C-40.76334261 210.46688168 -37.99986415 210.44364526 -35.23583984 210.41650391 C-34.43134399 210.41951004 -33.62684814 210.42251617 -32.79797363 210.4256134 C-24.14810786 210.30023571 -15.68316726 207.6398036 -9 202 C-2.98601594 195.25127581 -0.57454652 187.3624342 0.375 178.5 C-0.80228204 167.5120343 -4.35803291 159.70460631 -12.84765625 152.54296875 C-19.98985599 147.42288001 -28.234718 146.85316579 -36.75 146.84228516 C-38.05578003 146.83466408 -38.05578003 146.83466408 -39.38793945 146.82688904 C-41.27310185 146.81621185 -43.15827671 146.80758134 -45.04345703 146.80076981 C-48.02773606 146.78895267 -51.01187221 146.76949428 -53.99609375 146.74765015 C-62.47911842 146.68611599 -70.96212621 146.63194123 -79.4453125 146.59863281 C-84.63832212 146.57769595 -89.83106724 146.54240623 -95.02392578 146.49787521 C-97.00143321 146.48371359 -98.97898738 146.47499241 -100.95654297 146.47182083 C-103.72131083 146.46691562 -106.485375 146.44376956 -109.25 146.41650391 C-110.47360229 146.42101311 -110.47360229 146.42101311 -111.72192383 146.4256134 C-117.13270045 146.3463163 -120.54374941 145.38181875 -124.546875 141.5 C-128.50297992 136.56771335 -129.51795967 133.319108 -129 127 C-127.10772622 121.20423575 -124.50567162 117.8675373 -119 115 C-114.82239054 113.73440776 -110.67936346 113.85536632 -106.35107422 113.8581543 C-105.47897812 113.85467987 -104.60688202 113.85120544 -103.70835876 113.84762573 C-101.81554678 113.84027906 -99.92272624 113.83492788 -98.02990341 113.83133507 C-95.02752507 113.82415378 -92.02530866 113.80847322 -89.02297974 113.78999329 C-80.48669702 113.73761255 -71.95050237 113.68958866 -63.4140625 113.67407227 C-58.18971251 113.66395439 -52.96576964 113.63453156 -47.74158096 113.59275246 C-45.75704156 113.58048969 -43.77244453 113.57531251 -41.7878685 113.57755089 C-28.8051636 113.58858752 -17.75635366 113.5163423 -7.7578125 104.125 C-1.06222727 96.03078141 0.16074889 86.67253798 0.11352539 76.51611328 C0.11374443 75.2712188 0.11374443 75.2712188 0.1139679 74.00117493 C0.11327453 71.27419365 0.10550923 68.54728176 0.09765625 65.8203125 C0.09579002 63.92316729 0.09436709 62.0260216 0.09336853 60.12887573 C0.08955948 55.14765074 0.07974301 50.16645513 0.06866455 45.1852417 C0.05841572 40.09745684 0.05386348 35.00966722 0.04882812 29.921875 C0.03811925 19.94790379 0.02106225 9.97395434 0 0 Z " fill="#0F4FAD" transform="translate(248,1)"/>
</svg>
